<svg width="105" height="116" viewBox="0 0 105 116" fill="none" xmlns="http://www.w3.org/2000/svg">
<g id="Property 1=gold">
<g id="Group 1">
<g id="corner2">
<mask id="path-1-inside-1_5_128" fill="white">
<path d="M73.5346 91.8796H78.5346V99.8796H73.5346V91.8796Z"/>
</mask>
<path d="M73.5346 91.8796H78.5346V99.8796H73.5346V91.8796Z" fill="#BEBABA"/>
<path d="M78.5346 99.8796V99.3796H73.5346V99.8796V100.38H78.5346V99.8796Z" fill="black" mask="url(#path-1-inside-1_5_128)"/>
</g>
<g id="corner1">
<mask id="path-3-inside-2_5_128" fill="white">
<path d="M19 33H28V37H19V33Z"/>
</mask>
<path d="M19 33H28V37H19V33Z" fill="#BEBABA"/>
<path d="M19 37H19.5V33H19H18.5V37H19Z" fill="black" mask="url(#path-3-inside-2_5_128)"/>
</g>
<g id="tag" filter="url(#filter0_d_5_128)">
<rect x="31.4705" y="21.2747" width="90.0246" height="17" transform="rotate(48.6812 31.4705 21.2747)" fill="url(#paint0_linear_5_128)"/>
<rect x="31.4478" y="21.6275" width="89.5246" height="16.5" transform="rotate(48.6812 31.4478 21.6275)" stroke="black" stroke-width="0.5"/>
</g>
</g>
</g>
<defs>
<filter id="filter0_d_5_128" x="14.7027" y="21.2747" width="80.2063" height="87.837" filterUnits="userSpaceOnUse" color-interpolation-filters="sRGB">
<feFlood flood-opacity="0" result="BackgroundImageFix"/>
<feColorMatrix in="SourceAlpha" type="matrix" values="0 0 0 0 0 0 0 0 0 0 0 0 0 0 0 0 0 0 127 0" result="hardAlpha"/>
<feOffset dy="5"/>
<feGaussianBlur stdDeviation="2"/>
<feComposite in2="hardAlpha" operator="out"/>
<feColorMatrix type="matrix" values="0 0 0 0 0 0 0 0 0 0 0 0 0 0 0 0 0 0 0.25 0"/>
<feBlend mode="normal" in2="BackgroundImageFix" result="effect1_dropShadow_5_128"/>
<feBlend mode="normal" in="SourceGraphic" in2="effect1_dropShadow_5_128" result="shape"/>
</filter>
<linearGradient id="paint0_linear_5_128" x1="53.7269" y1="29.4373" x2="105.796" y2="29.2758" gradientUnits="userSpaceOnUse">
<stop offset="0.159786" stop-color="#D3B22E"/>
<stop offset="0.779653" stop-color="#CECE7F"/>
</linearGradient>
</defs>
</svg>
